Coordinates
version=1
nRows=11
nColumns=42
inDegrees=yes

Units are S.I. units (second, meters, Newtons, ...)
If the header above contains a line with 'inDegrees', this indicates whether rotational values are in degrees (yes) or radians (no).

endheader
time	pelvis_tilt	pelvis_list	pelvis_rotation	pelvis_tx	pelvis_ty	pelvis_tz	hip_flexion_r	hip_adduction_r	hip_rotation_r	knee_angle_r	knee_angle_r_beta	ankle_angle_r	subtalar_angle_r	mtp_angle_r	hip_flexion_l	hip_adduction_l	hip_rotation_l	knee_angle_l	knee_angle_l_beta	ankle_angle_l	subtalar_angle_l	mtp_angle_l	lumbar_extension	lumbar_bending	lumbar_rotation	sh_tx_r	sh_ty_r	sh_tz_r	sh_plane_elev_r	sh_elev_r	sh_axial_rot_r	elbow_flex_r	pro_sup_r	sh_tx_l	sh_ty_l	sh_tz_l	sh_plane_elev_l	sh_elev_l	sh_axial_rot_l	elbow_flex_l	pro_sup_l
      1.67796610	     -6.02686792	     -0.87433442	     -0.69894712	      0.27454263	      0.93493325	     -0.05816636	      4.48374134	     -5.48581080	     -9.77651869	      2.18199480	      0.03808299	      2.19150756	     -0.43207723	     -7.49999979	      5.12056789	     -2.28955917	     -9.09860265	      1.88789875	      0.03295005	      8.74483624	     -0.05383200	     -7.49999979	      0.04091959	     -0.88803094	     -3.63510870	      0.01614336	     -0.01709557	     -0.00473712	     26.37602474	      7.22052822	     -1.83736852	     21.77416114	     65.40220108	      0.01059713	     -0.01365273	     -0.00348800	     -0.72534557	     25.61390815	    -22.51872291	     42.61063972	     46.49711139
      1.69491520	     -6.12061219	     -0.85565203	     -0.65534562	      0.27476923	      0.93774477	     -0.05785860	      4.61109436	     -5.62621572	     -9.92417447	      2.29173245	      0.03999828	      2.23884184	     -0.20945068	     -7.49999979	      5.28842331	     -2.20850510	     -9.05170479	      1.98638212	      0.03466891	      8.69830101	     -0.14110535	     -7.49999979	      0.04117557	     -0.81125786	     -3.88181539	      0.01562172	     -0.01700523	     -0.00487438	     26.49769626	      7.43274573	     -1.04789449	     21.83270683	     65.89325999	      0.00924799	     -0.01361313	     -0.00344660	     -0.99777909	     25.51653526	    -22.20067267	     42.53001452	     45.51633593
      1.71186440	     -6.11728756	     -0.82985750	     -0.66790315	      0.27451462	      0.93761818	     -0.05803882	      4.63285000	     -5.74657140	    -10.03939632	      2.35791397	      0.04115336	      2.41773600	      0.17621607	     -7.49999979	      5.28392335	     -2.11574793	     -9.14506828	      2.01171338	      0.03511102	      8.79389407	     -0.03755942	     -7.49999979	     -0.03783879	     -0.74520786	     -3.96238888	      0.01501281	     -0.01690059	     -0.00479392	     27.47621705	      7.74589286	     -0.12903896	     21.57688020	     65.86287070	      0.00810708	     -0.01354169	     -0.00350268	     -0.82670330	     25.54929717	    -21.98770326	     42.16520956	     45.36215110
      1.72881360	     -6.18342055	     -0.85383842	     -0.62668282	      0.27083449	      0.93747209	     -0.05323169	      4.73743202	     -5.71194003	    -10.09735749	      2.38315381	      0.04159388	      2.53143652	      0.33307641	     -7.49999981	      5.40421101	     -2.13034919	     -8.90545456	      2.05182575	      0.03581112	      8.64081011	     -0.33354269	     -7.49999981	     -0.00198183	     -0.74893983	     -4.05402545	      0.01570974	     -0.01688935	     -0.00475964	     26.42349727	      7.54831028	     -0.14077314	     22.00510481	     66.29315527	      0.00879640	     -0.01345196	     -0.00347775	     -1.28261823	     25.62745194	    -21.63543713	     42.40475988	     44.62968769
      1.74576270	     -6.14085961	     -0.86153558	     -0.65104928	      0.27058025	      0.93747869	     -0.05342124	      4.74561387	     -5.67474647	    -10.01495523	      2.40847928	      0.04203589	      2.48139915	      0.20224992	     -7.49999981	      5.40099635	     -2.16385034	     -9.04429337	      2.07999558	      0.03630277	      8.72433478	     -0.13931025	     -7.49999981	     -0.18428087	     -0.74649483	     -4.01766066	      0.01553240	     -0.01684564	     -0.00480917	     27.53669441	      7.72601074	      0.22658130	     21.96139038	     66.35960640	      0.00826805	     -0.01337512	     -0.00352373	     -0.43875669	     25.98170931	    -21.74036327	     41.72781369	     44.35035136
      1.76271190	     -6.27338597	     -0.88030699	     -0.70982425	      0.27026326	      0.93705405	     -0.05316160	      5.23977209	     -5.64185307	     -9.96846065	      2.96351947	      0.05172317	      2.64343581	      0.16297164	     -7.49999982	      5.86717270	     -2.26780920	     -9.29545728	      2.65861547	      0.04640159	      9.08294353	      0.07846823	     -7.49999982	     -0.41866068	     -0.83955837	     -3.86600569	      0.01386052	     -0.01456245	     -0.00498533	     28.94809586	      8.16704485	      1.22156684	     22.36649244	     66.11471641	      0.00819793	     -0.01039988	     -0.00423267	      0.02739906	     26.39346556	    -21.50228751	     41.77570051	     44.41428478
      1.77966100	     -6.15826087	     -0.93415949	     -0.64520239	      0.27053072	      0.93729248	     -0.05332936	      4.86124518	     -5.48362332	     -9.93491419	      2.48245252	      0.04332697	      2.26845209	      0.09058840	     -7.49999982	      5.53818517	     -2.30831129	     -9.00149487	      2.18534983	      0.03814155	      8.67520498	     -0.27249243	     -7.49999982	     -0.25149793	     -0.78747942	     -4.16390699	      0.01668928	     -0.01683106	     -0.00474933	     28.80366680	      7.86776797	      0.26739366	     22.07783368	     66.10747886	      0.00828789	     -0.01302002	     -0.00352163	      0.05325755	     26.55722900	    -22.18632267	     41.72854601	     43.56686963
      1.79661020	     -6.14760572	     -0.94964269	     -0.65258792	      0.27071725	      0.93404111	     -0.05281055	      4.92581163	     -5.43696545	     -9.96088743	      2.55647773	      0.04461895	      2.35355455	      0.36050922	     -7.49999983	      5.57613323	     -2.35339879	     -8.99396918	      2.23960168	      0.03908842	      8.78839026	     -0.23065290	     -7.49999983	     -0.27704755	     -0.80453765	     -3.90197382	      0.01620855	     -0.01676003	     -0.00486558	     29.52253077	      8.14013236	      1.07428598	     22.03125432	     65.86652979	      0.00831761	     -0.01255789	     -0.00363322	      0.85225246	     26.91742329	    -22.04952815	     41.32975602	     43.44530574
      1.81355930	     -6.20985626	     -0.95967916	     -0.61421349	      0.27048078	      0.93404754	     -0.05304337	      5.03447256	     -5.41468658	     -9.75116231	      2.62741792	      0.04585709	      2.26208315	      0.26909000	     -7.49999983	      5.71205142	     -2.39969583	     -8.96647041	      2.32703722	      0.04061446	      8.80167902	     -0.25780430	     -7.49999983	     -0.28615832	     -0.82846714	     -3.89751579	      0.01578649	     -0.01674282	     -0.00481698	     29.51391942	      8.17453070	      0.06754219	     22.23016892	     65.98934171	      0.00815058	     -0.01217494	     -0.00357363	      1.20268357	     27.10613142	    -22.74995655	     41.64049369	     42.52794890
      1.83050850	     -6.19854562	     -0.97721139	     -0.60480389	      0.27074338	      0.93426310	     -0.05285785	      5.07526185	     -5.38435809	     -9.76376878	      2.69984292	      0.04712115	      2.28408924	      0.30875185	     -7.49999984	      5.75011403	     -2.45091022	     -9.00805108	      2.40533190	      0.04198096	      8.93907393	     -0.13794753	     -7.49999984	     -0.34717418	     -0.83041563	     -4.00902165	      0.01556490	     -0.01669419	     -0.00486174	     30.25989888	      8.28022915	      0.30886462	     22.19584421	     65.99875165	      0.00717937	     -0.01182777	     -0.00362037	      1.73403533	     27.52679812	    -22.74897978	     41.27859829	     41.99013163
      1.84745760	     -6.29440679	     -0.98968982	     -0.54270269	      0.27049198	      0.93429503	     -0.05314990	      5.20615991	     -5.37788348	     -9.65199974	      2.77290276	      0.04839628	      2.35584211	      0.37047327	     -7.49999984	      5.92274945	     -2.47833484	     -8.88037213	      2.50649934	      0.04374667	      8.91050096	     -0.28869783	     -7.49999984	     -0.20501409	     -0.83078869	     -4.30128566	      0.01630464	     -0.01664571	     -0.00478291	     30.39912158	      8.17690747	      0.44639422	     22.11126368	     65.99188470	      0.00683803	     -0.01175649	     -0.00358443	      1.79094336	     27.89471573	    -23.17567585	     41.41185475	     41.52465012
